<svg data-name="Group 14" xmlns="http://www.w3.org/2000/svg" width="108.848" height="108.849"><path data-name="Rectangle 14" fill="none" d="M11.081 54.425l14.346-14.346 14.346 14.345-14.346 14.347z"/><path data-name="Rectangle 15" fill="none" d="M40.079 25.426L54.425 11.08 68.77 25.426 54.425 39.772z"/><path data-name="Rectangle 16" fill="none" d="M40.079 83.422l14.346-14.346L68.77 83.421 54.425 97.768z"/><path data-name="Rectangle 17" fill="none" d="M69.077 54.424l14.346-14.346 14.346 14.345L83.423 68.77z"/><path data-name="Rectangle 18" fill="#f06161" d="M63.536 48.884l14.346-14.346 5.54 5.54-14.346 14.346z"/><path data-name="Rectangle 19" fill="#f06161" d="M34.538 77.882l14.346-14.346 5.54 5.54-14.346 14.346z"/><path data-name="Rectangle 20" fill="#f06161" d="M54.424 39.772L68.77 25.426l5.54 5.54-14.346 14.346z"/><path data-name="Rectangle 21" fill="#f06161" d="M25.426 68.77l14.346-14.346 5.54 5.54L30.966 74.31z"/><path data-name="Rectangle 22" fill="#f06161" d="M25.426 40.079l5.54-5.54 14.346 14.346-5.54 5.54z"/><path data-name="Rectangle 23" fill="#f06161" d="M34.538 30.967l5.54-5.54 14.346 14.346-5.54 5.54z"/><path data-name="Rectangle 24" fill="#f06161" d="M63.536 59.965l5.54-5.54L83.421 68.77l-5.54 5.54z"/><path data-name="Rectangle 25" fill="#f06161" d="M54.424 69.077l5.54-5.54L74.31 77.882l-5.54 5.54z"/><path data-name="Path 304" d="M74.309 88.962l-5.54-5.54-14.346 14.346-14.346-14.346-5.54 5.54 19.887 19.882z" fill="#f06161" opacity=".467"/><path data-name="Path 305" d="M25.426 40.079l-5.54-5.54L0 54.425l19.886 19.886 5.54-5.54-14.349-14.347z" fill="#f06161" opacity=".467"/><path data-name="Path 306" d="M88.963 34.541l-5.54 5.54 14.346 14.346-14.346 14.345 5.54 5.54 19.883-19.888z" fill="#f06161" opacity=".467"/><path data-name="Path 307" d="M68.769 25.427l5.54-5.54L54.423.001 34.542 19.886l5.54 5.54L54.428 11.08z" fill="#f06161" opacity=".467"/></svg>